<svg width="178px" height="46px" viewBox="0 0 178 46" version="1.1" xmlns="http://www.w3.org/2000/svg" xmlns:xlink="http://www.w3.org/1999/xlink">
    <defs>
        <rect id="path-1" x="0" y="0" width="168" height="36" rx="5"></rect>
        <filter x="-5.1%" y="-18.1%" width="110.1%" height="147.2%" filterUnits="objectBoundingBox" id="filter-2">
            <feMorphology radius="0.5" operator="erode" in="SourceAlpha" result="shadowSpreadOuter1"></feMorphology>
            <feOffset dx="0" dy="2" in="shadowSpreadOuter1" result="shadowOffsetOuter1"></feOffset>
            <feGaussianBlur stdDeviation="3" in="shadowOffsetOuter1" result="shadowBlurOuter1"></feGaussianBlur>
            <feComposite in="shadowBlurOuter1" in2="SourceAlpha" operator="out" result="shadowBlurOuter1"></feComposite>
            <feColorMatrix values="0 0 0 0 0   0 0 0 0 0   0 0 0 0 0  0 0 0 0.1 0" type="matrix" in="shadowBlurOuter1" result="shadowMatrixOuter1"></feColorMatrix>
            <feMorphology radius="1" operator="erode" in="SourceAlpha" result="shadowSpreadOuter2"></feMorphology>
            <feOffset dx="0" dy="1" in="shadowSpreadOuter2" result="shadowOffsetOuter2"></feOffset>
            <feGaussianBlur stdDeviation="1.5" in="shadowOffsetOuter2" result="shadowBlurOuter2"></feGaussianBlur>
            <feComposite in="shadowBlurOuter2" in2="SourceAlpha" operator="out" result="shadowBlurOuter2"></feComposite>
            <feColorMatrix values="0 0 0 0 0   0 0 0 0 0   0 0 0 0 0  0 0 0 0.1 0" type="matrix" in="shadowBlurOuter2" result="shadowMatrixOuter2"></feColorMatrix>
            <feMerge>
                <feMergeNode in="shadowMatrixOuter1"></feMergeNode>
                <feMergeNode in="shadowMatrixOuter2"></feMergeNode>
            </feMerge>
        </filter>
    </defs>
    <g id="Page-1" stroke="none" stroke-width="1" fill="none" fill-rule="evenodd">
        <g id="Desktop-1" transform="translate(-1157.000000, -741.000000)">
            <g id="Group" transform="translate(1162.000000, 744.000000)">
                <g id="Rectangle">
                    <use fill="black" fill-opacity="1" filter="url(#filter-2)" xlink:href="#path-1"></use>
                    <rect stroke="#D3D2D3" stroke-width="1" stroke-linejoin="square" fill="#FFFFFF" fill-rule="evenodd" x="0.5" y="0.5" width="167" height="35" rx="5"></rect>
                </g>
                <path d="M29,6 C30.1045695,6 31,6.8954305 31,8 L31,28 C31,29.1045695 30.1045695,30 29,30 L9,30 C7.8954305,30 7,29.1045695 7,28 L7,8 C7,6.8954305 7.8954305,6 9,6 L29,6 Z M14,17 L14,24.9999787 L18,24.9999787 L17.9979892,20.8628542 C17.9302483,18.7232056 16.1684396,17.0063733 14,17 L14,17 Z M20,11 L20,19 L20.1996403,18.9951047 C22.3160315,18.8910789 24,17.1421954 24,15 C24,12.790861 22.209139,11 20,11 L20,11 Z M14,11 L14,15 L18,15 C18,12.790861 16.209139,11 14,11 L14,11 Z" id="logo" fill="#000000"></path>
                <path d="M39.9325275,13.5454636 L39.9325275,23 L41.5759919,23 L41.5759919,16.4907733 L41.6637048,16.4907733 L44.2766285,22.9723012 L45.5046103,22.9723012 L48.1175339,16.5046227 L48.2052469,16.5046227 L48.2052469,23 L49.8487112,23 L49.8487112,13.5454636 L47.7528326,13.5454636 L44.9460171,20.3963093 L44.8352217,20.3963093 L42.0284062,13.5454636 L39.9325275,13.5454636 Z M53.630395,23.1431107 C54.7429649,23.1431107 55.407737,22.6214492 55.7124242,22.0259242 L55.7678219,22.0259242 L55.7678219,23 L57.3743545,23 L57.3743545,18.2542659 C57.3743545,16.3799779 55.8463019,15.8167682 54.4936754,15.8167682 C53.0025547,15.8167682 51.8576694,16.4815403 51.4883516,17.7741527 L53.0487194,17.9957434 C53.2149124,17.5110138 53.6857926,17.0955312 54.5029083,17.0955312 C55.2784758,17.0955312 55.7031913,17.4925479 55.7031913,18.1896353 L55.7031913,18.2173341 C55.7031913,18.6974473 55.1999957,18.7205296 53.9489316,18.8544074 C52.5732227,19.0021345 51.2575279,19.4130006 51.2575279,21.0103002 C51.2575279,22.404475 52.2777684,23.1431107 53.630395,23.1431107 Z M54.0643434,21.9151289 C53.367256,21.9151289 52.8686769,21.5965922 52.8686769,20.9826014 C52.8686769,20.3409116 53.4272702,20.0731562 54.1751388,19.9669773 C54.6137037,19.9069632 55.4908335,19.7961678 55.7078078,19.6207419 L55.7078078,20.4563234 C55.7078078,21.2457403 55.0707345,21.9151289 54.0643434,21.9151289 Z M61.6407637,23.1246448 C62.8595126,23.1246448 63.4088728,22.3998585 63.6720118,21.8828136 L63.7735742,21.8828136 L63.7735742,23 L65.4170385,23 L65.4170385,13.5454636 L63.7412589,13.5454636 L63.7412589,17.0816818 L63.6720118,17.0816818 C63.4181058,16.5692533 62.8964443,15.8167682 61.6453802,15.8167682 C60.0065323,15.8167682 58.7185364,17.1001477 58.7185364,19.4637818 C58.7185364,21.7997171 59.9696005,23.1246448 61.6407637,23.1246448 Z M62.1070275,21.7535523 C61.0036905,21.7535523 60.4220149,20.784093 60.4220149,19.4545488 C60.4220149,18.1342376 60.9944575,17.1878607 62.1070275,17.1878607 C63.1826657,17.1878607 63.7735742,18.0788399 63.7735742,19.4545488 C63.7735742,20.8302578 63.1734327,21.7535523 62.1070275,21.7535523 Z M70.2928229,23.1384942 C71.9455202,23.1384942 73.0811725,22.3306114 73.3766268,21.0980132 L71.8162589,20.9225872 C71.5900518,21.5227287 71.036075,21.8366488 70.3159053,21.8366488 C69.2356506,21.8366488 68.5200973,21.125712 68.5062479,19.9115796 L73.4458739,19.9115796 L73.4458739,19.3991512 C73.4458739,16.9108723 71.9501367,15.8167682 70.2051099,15.8167682 C68.1738618,15.8167682 66.8489341,17.307889 66.8489341,19.4960971 C66.8489341,21.721237 68.155396,23.1384942 70.2928229,23.1384942 Z M68.5108644,18.7851603 C68.5616456,17.8803316 69.2310341,17.1186136 70.2281923,17.1186136 C71.1884186,17.1186136 71.8347248,17.8203174 71.8439578,18.7851603 L68.5108644,18.7851603 Z M77.9854395,23 L79.6566027,23 L79.6566027,15.9090977 L77.9854395,15.9090977 L77.9854395,23 Z M78.8256376,14.9027066 C79.356532,14.9027066 79.7904804,14.496457 79.7904804,13.9978779 C79.7904804,13.4946824 79.356532,13.0884327 78.8256376,13.0884327 C78.2901267,13.0884327 77.8561783,13.4946824 77.8561783,13.9978779 C77.8561783,14.496457 78.2901267,14.9027066 78.8256376,14.9027066 Z M82.995097,18.8451744 C82.995097,17.8203174 83.6137044,17.2294089 84.4954507,17.2294089 C85.3587311,17.2294089 85.8757761,17.7972351 85.8757761,18.743612 L85.8757761,23 L87.5469557,23 L87.5469557,18.4850895 C87.5515557,16.7862275 86.5820964,15.8167682 85.1186745,15.8167682 C84.0568858,15.8167682 83.3274831,16.3245802 83.00433,17.1139971 L82.9212335,17.1139971 L82.9212335,15.9090977 L81.3239338,15.9090977 L81.3239338,23 L82.995097,23 L82.995097,18.8451744 Z M92.4512065,23 L94.1639179,23 L94.1639179,19.8054008 L95.9735753,19.8054008 C98.157167,19.8054008 99.3297511,18.4943225 99.3297511,16.6754322 C99.3297511,14.8703913 98.1710164,13.5454636 95.9966577,13.5454636 L92.4512065,13.5454636 L92.4512065,23 Z M94.1639179,18.3973765 L94.1639179,14.9765702 L95.7335187,14.9765702 C97.0168982,14.9765702 97.5847243,15.6690411 97.5847243,16.6754322 C97.5847243,17.6818233 97.0168982,18.3973765 95.7427517,18.3973765 L94.1639179,18.3973765 Z M102.608236,23.1431107 C103.720806,23.1431107 104.385578,22.6214492 104.690265,22.0259242 L104.745663,22.0259242 L104.745663,23 L106.352195,23 L106.352195,18.2542659 C106.352195,16.3799779 104.824143,15.8167682 103.471516,15.8167682 C101.980396,15.8167682 100.83551,16.4815403 100.466192,17.7741527 L102.02656,17.9957434 C102.192753,17.5110138 102.663634,17.0955312 103.480749,17.0955312 C104.256317,17.0955312 104.681032,17.4925479 104.681032,18.1896353 L104.681032,18.2173341 C104.681032,18.6974473 104.177837,18.7205296 102.926772,18.8544074 C101.551064,19.0021345 100.235369,19.4130006 100.235369,21.0103002 C100.235369,22.404475 101.255609,23.1431107 102.608236,23.1431107 Z M103.042184,21.9151289 C102.345097,21.9151289 101.846518,21.5965922 101.846518,20.9826014 C101.846518,20.3409116 102.405111,20.0731562 103.15298,19.9669773 C103.591545,19.9069632 104.468674,19.7961678 104.685649,19.6207419 L104.685649,20.4563234 C104.685649,21.2457403 104.048575,21.9151289 103.042184,21.9151289 Z M111.071019,25.7791167 C112.986855,25.7791167 114.399496,24.9019868 114.399496,23.1154118 L114.399496,15.9090977 L112.751415,15.9090977 L112.751415,17.0816818 L112.659086,17.0816818 C112.40518,16.5692533 111.874285,15.8167682 110.623221,15.8167682 C108.984373,15.8167682 107.696377,17.1001477 107.696377,19.4314665 C107.696377,21.7443194 108.984373,22.8984376 110.618605,22.8984376 C111.832737,22.8984376 112.400563,22.2475149 112.659086,21.7258535 L112.742182,21.7258535 L112.742182,23.0692471 C112.742182,24.0848711 112.049711,24.5142031 111.098718,24.5142031 C110.092327,24.5142031 109.649145,24.0387064 109.446021,23.6509227 L107.94105,24.015624 C108.245738,24.9804669 109.265978,25.7791167 111.071019,25.7791167 Z M111.084868,21.5873593 C109.981531,21.5873593 109.399856,20.7286953 109.399856,19.4222335 C109.399856,18.1342376 109.972298,17.1878607 111.084868,17.1878607 C112.160507,17.1878607 112.751415,18.0788399 112.751415,19.4222335 C112.751415,20.7748601 112.151274,21.5873593 111.084868,21.5873593 Z M119.206033,23.1384942 C120.85873,23.1384942 121.994383,22.3306114 122.289837,21.0980132 L120.729469,20.9225872 C120.503262,21.5227287 119.949285,21.8366488 119.229115,21.8366488 C118.148861,21.8366488 117.433308,21.125712 117.419458,19.9115796 L122.359084,19.9115796 L122.359084,19.3991512 C122.359084,16.9108723 120.863347,15.8167682 119.11832,15.8167682 C117.087072,15.8167682 115.762144,17.307889 115.762144,19.4960971 C115.762144,21.721237 117.068606,23.1384942 119.206033,23.1384942 Z M117.424075,18.7851603 C117.474856,17.8803316 118.144244,17.1186136 119.141402,17.1186136 C120.101629,17.1186136 120.747935,17.8203174 120.757168,18.7851603 L117.424075,18.7851603 Z M126.814769,23.1384942 C128.596727,23.1384942 129.73238,22.0813219 129.852408,20.5763517 L128.255108,20.5763517 C128.111998,21.3380698 127.562638,21.7766347 126.828618,21.7766347 C125.785296,21.7766347 125.11129,20.9041213 125.11129,19.4545488 C125.11129,18.0234422 125.799145,17.1647783 126.828618,17.1647783 C127.631885,17.1647783 128.125847,17.6818233 128.255108,18.3650612 L129.852408,18.3650612 C129.736996,16.8277758 128.536713,15.8167682 126.805536,15.8167682 C124.728123,15.8167682 123.417045,17.3171219 123.417045,19.4822477 C123.417045,21.6289076 124.695808,23.1384942 126.814769,23.1384942 Z M132.849287,13.5454636 L131.178124,13.5454636 L131.178124,23 L132.849287,23 L132.849287,13.5454636 Z M137.609655,23.1384942 C139.687068,23.1384942 141.007379,21.6750723 141.007379,19.4822477 C141.007379,17.2848066 139.687068,15.8167682 137.609655,15.8167682 C135.532243,15.8167682 134.211931,17.2848066 134.211931,19.4822477 C134.211931,21.6750723 135.532243,23.1384942 137.609655,23.1384942 Z M137.618888,21.7997171 C136.469387,21.7997171 135.906177,20.7748601 135.906177,19.4776312 C135.906177,18.1804023 136.469387,17.1416959 137.618888,17.1416959 C138.749924,17.1416959 139.313134,18.1804023 139.313134,19.4776312 C139.313134,20.7748601 138.749924,21.7997171 137.618888,21.7997171 Z M146.889555,20.0177585 C146.889555,21.0980132 146.118604,21.633524 145.379968,21.633524 C144.576702,21.633524 144.041191,21.0656979 144.041191,20.1654857 L144.041191,15.9090977 L142.370028,15.9090977 L142.370028,20.4240081 C142.370028,22.1274866 143.339487,23.0923295 144.733662,23.0923295 C145.79545,23.0923295 146.543319,22.5337362 146.866472,21.7397029 L146.940336,21.7397029 L146.940336,23 L148.560718,23 L148.560718,15.9090977 L146.889555,15.9090977 L146.889555,20.0177585 Z M152.859443,23.1246448 C154.078192,23.1246448 154.627552,22.3998585 154.890691,21.8828136 L154.992253,21.8828136 L154.992253,23 L156.635718,23 L156.635718,13.5454636 L154.959938,13.5454636 L154.959938,17.0816818 L154.890691,17.0816818 C154.636785,16.5692533 154.115123,15.8167682 152.864059,15.8167682 C151.225211,15.8167682 149.937215,17.1001477 149.937215,19.4637818 C149.937215,21.7997171 151.18828,23.1246448 152.859443,23.1246448 Z M153.325706,21.7535523 C152.222369,21.7535523 151.640694,20.784093 151.640694,19.4545488 C151.640694,18.1342376 152.213136,17.1878607 153.325706,17.1878607 C154.401345,17.1878607 154.992253,18.0788399 154.992253,19.4545488 C154.992253,20.8302578 154.392112,21.7535523 153.325706,21.7535523 Z" id="text" fill="#222122" fill-rule="nonzero"></path>
            </g>
        </g>
    </g>
</svg>